# xmcd
#
# Track frame offsets: 
#        150
#        18185
#        36350
#        56422
#        74658
#        94236
#        110265
#        128267
#        146323
#        162917
#        166774
#        183084
#        201122
#        212046
#        216861
#        235001
#        246523
#
# Disc length: 3494 seconds
#
# Revision: 5
# Processed by: cddbd v1.5.2PL0 Copyright (c) Steve Scherf et al.
# Submitted via: ExactAudioCopy v1.3
#
DISCID=e60da411
DTITLE=Mariah Carey - Memoirs Of An Imperfect Angel [CD1)
DYEAR=2009
DGENRE=R&B/Pop
TTITLE0=Betcha Gon' Know (The Prologue)
TTITLE1=Obsessed
TTITLE2=H.A.T.E. U.
TTITLE3=Candy Bling
TTITLE4=Ribbon
TTITLE5=Inseparable
TTITLE6=Standing O
TTITLE7=It's A Wrap
TTITLE8=Up Out My Face
TTITLE9=Up Out My Face (The Reprise)
TTITLE10=More Than Just Friends
TTITLE11=The Impossible
TTITLE12=The Impossible (The Reprise)
TTITLE13=Angel (The Prelude)
TTITLE14=Angels Cry
TTITLE15=Languishing (The Interlude)
TTITLE16=I Want To Know What Love Is
EXTD=YEAR: 2009
EXTT0=
EXTT1=
EXTT2=
EXTT3=
EXTT4=
EXTT5=
EXTT6=
EXTT7=
EXTT8=
EXTT9=
EXTT10=
EXTT11=
EXTT12=
EXTT13=
EXTT14=
EXTT15=
EXTT16=
PLAYORDER=
